<?xml version="1.0" encoding="UTF-8"?>
<svg xmlns="http://www.w3.org/2000/svg" viewBox="0 0 400 580" width="400" height="580">
  <defs>
    <!-- Background Gradient -->
    <linearGradient id="bg_book3" x1="0%" y1="0%" x2="100%" y2="100%">
      <stop offset="0%" stop-color="#1e1b4b" />
      <stop offset="65%" stop-color="#581c87" />
      <stop offset="100%" stop-color="#1e1b4b" />
    </linearGradient>

    <!-- Overlay Mesh -->
    <linearGradient id="highlight_book3" x1="0%" y1="0%" x2="0%" y2="100%">
      <stop offset="0%" stop-color="#ffffff" stop-opacity="0.18" />
      <stop offset="50%" stop-color="#ffffff" stop-opacity="0" />
      <stop offset="100%" stop-color="#000000" stop-opacity="0.45" />
    </linearGradient>

    <!-- Grid Pattern -->
    <pattern id="pat_book3" width="20" height="20" patternUnits="userSpaceOnUse">
      <path d="M 20 0 L 0 0 0 20" fill="none" stroke="rgba(255,255,255,0.06)" stroke-width="0.8"/>
    </pattern>

    <!-- Glow Filter -->
    <filter id="glow_book3" x="-20%" y="-20%" width="140%" height="140%">
      <feGaussianBlur stdDeviation="6" result="blur" />
      <feComposite in="SourceGraphic" in2="blur" operator="over" />
    </filter>
  </defs>

  <!-- Base Cover Structure -->
  <rect width="400" height="580" rx="16" fill="#1e1b4b" />
  <rect width="400" height="580" rx="16" fill="url(#bg_book3)" />
  <rect width="400" height="580" rx="16" fill="url(#pat_book3)" />
  <rect width="400" height="580" rx="16" fill="url(#highlight_book3)" />

  <!-- Book Spine 3D Effect on Left -->
  <rect x="0" y="0" width="24" height="580" rx="4" fill="rgba(0,0,0,0.38)" />
  <line x1="24" y1="0" x2="24" y2="580" stroke="rgba(255,255,255,0.22)" stroke-width="1.5" />
  <line x1="6" y1="0" x2="6" y2="580" stroke="rgba(255,255,255,0.08)" stroke-width="1" />

  <!-- Top Category Badge -->
  <rect x="42" y="38" width="95" height="26" rx="6" fill="rgba(255,255,255,0.18)" stroke="rgba(255,255,255,0.25)" stroke-width="1"/>
  <text x="89" y="55" fill="#ffffff" font-family="'Segoe UI', Roboto, sans-serif" font-weight="bold" font-size="11" text-anchor="middle" letter-spacing="1">ARTIFICIAL INTEL</text>

  <!-- Tag Ribbon (e.g. Bestseller / 2026) -->
  <rect x="250" y="38" width="112" height="26" rx="6" fill="rgba(245,158,11,0.25)" stroke="#f59e0b" stroke-width="1"/>
  <text x="306" y="55" fill="#fbbf24" font-family="'Segoe UI', Roboto, sans-serif" font-weight="bold" font-size="10" text-anchor="middle" letter-spacing="0.5">★ AI MASTERCLASS</text>

  <!-- Central Graphic Artwork -->
  
        <!-- Neural Brain / AI Chip Art -->
        <g transform="translate(200, 195)">
            <circle cx="0" cy="0" r="80" fill="none" stroke="#c084fc" stroke-width="1" stroke-dasharray="8 6" opacity="0.4"/>
            <!-- AI Chip Base -->
            <rect x="-45" y="-45" width="90" height="90" rx="14" fill="#3b0764" stroke="#a855f7" stroke-width="3"/>
            <!-- Circuit pins -->
            <line x1="-30" y1="-45" x2="-30" y2="-60" stroke="#c084fc" stroke-width="2.5"/>
            <line x1="0" y1="-45" x2="0" y2="-60" stroke="#c084fc" stroke-width="2.5"/>
            <line x1="30" y1="-45" x2="30" y2="-60" stroke="#c084fc" stroke-width="2.5"/>
            <line x1="-30" y1="45" x2="-30" y2="60" stroke="#c084fc" stroke-width="2.5"/>
            <line x1="0" y1="45" x2="0" y2="60" stroke="#c084fc" stroke-width="2.5"/>
            <line x1="30" y1="45" x2="30" y2="60" stroke="#c084fc" stroke-width="2.5"/>
            <!-- Inner AI Core -->
            <circle cx="0" cy="0" r="24" fill="#a855f7"/>
            <polygon points="0,-16 14,-8 14,8 0,16 -14,8 -14,-8" fill="#f3e8ff"/>
            <circle cx="0" cy="0" r="4" fill="#581c87"/>
            <text x="0" y="32" fill="#e9d5ff" font-family="'Segoe UI', sans-serif" font-weight="900" font-size="10" text-anchor="middle">NEURAL CORE</text>
        </g>

  <!-- Typography Area -->
  <g transform="translate(44, 340)">
    <!-- English/Main Title -->
    <text x="0" y="0" fill="#ffffff" font-family="'Segoe UI', Roboto, Helvetica, sans-serif" font-weight="900" font-size="23" letter-spacing="-0.5">Practical AI &amp; Machine Learning</text>
    
    <!-- Thai Title -->
    <text x="0" y="28" fill="#c084fc" font-family="'Segoe UI', 'Sarabun', sans-serif" font-weight="bold" font-size="15">ปัญญาประดิษฐ์ฉบับใช้งานจริง</text>
    
    <!-- Subtitle / Topic Details -->
    <text x="0" y="52" fill="rgba(255,255,255,0.8)" font-family="'Segoe UI', Roboto, sans-serif" font-size="13">Deep Learning, NLP &amp; Neural Nets</text>
    
    <!-- Stylized Separator Bar -->
    <line x1="0" y1="72" x2="80" y2="72" stroke="#c084fc" stroke-width="3.5" stroke-linecap="round"/>
    <circle cx="95" cy="72" r="3" fill="#c084fc" />
  </g>

  <!-- Footer Edition & Barcode Area -->
  <rect x="42" y="490" width="318" height="48" rx="10" fill="rgba(0,0,0,0.45)" stroke="rgba(255,255,255,0.1)" stroke-width="1"/>
  <text x="60" y="520" fill="rgba(255,255,255,0.9)" font-family="'Segoe UI', Roboto, sans-serif" font-size="12" font-weight="bold">OFFICIAL DIGITAL E-BOOK</text>
  <text x="342" y="520" fill="#fbbf24" font-family="'Segoe UI', Roboto, sans-serif" font-weight="900" font-size="13" text-anchor="end">2026 EDITION</text>
</svg>